<svg xmlns="http://www.w3.org/2000/svg" width="27" height="26" viewBox="0 0 27 26" fill="none">
  <path d="M20.763 7.64537L22.1992 6.29547V6H17.2237L13.6777 14.6712L9.64347 6H4.42647V6.29547L6.10422 8.27979C6.26772 8.42642 6.35322 8.64084 6.33147 8.85674V16.6547C6.38322 16.9355 6.29022 17.2243 6.08922 17.4284L4.19922 19.6787V19.9705H9.55797V19.6751L7.66797 17.4284C7.46322 17.2236 7.36647 16.9399 7.40772 16.6547V9.90968L12.1117 19.9742H12.6585L16.7032 9.90968V17.9273C16.7032 18.1387 16.7032 18.1822 16.5622 18.3207L15.1072 19.7038V20H22.1662V19.7045L20.7637 18.3554C20.6407 18.264 20.577 18.1107 20.6032 17.9619V8.03884C20.577 7.88926 20.64 7.736 20.763 7.64537Z" fill="#6C6C6C"/>
</svg>