<svg width="22" height="23" viewBox="0 0 22 23" fill="none" xmlns="http://www.w3.org/2000/svg">
<g clip-path="url(#clip0_1_18298)">
<path d="M16.1078 2.0234C15.5352 2.61523 15.0107 3.25668 14.5444 3.94066L14.397 3.89104C13.5467 3.60398 12.6656 3.42679 11.7777 3.36654C11.5103 3.34528 10.5126 3.34528 10.1869 3.36654C9.20297 3.43388 8.44873 3.58626 7.59163 3.89458C7.55734 3.90876 7.52649 3.91939 7.49563 3.93002C7.01223 3.24959 6.47397 2.61169 5.88086 2.02694C8.72643 0.52078 12.0554 0.34004 15.0347 1.52725C15.3535 1.65129 15.6655 1.79659 15.9706 1.95252L16.1078 2.0234Z" fill="#F00500"/>
<path d="M21.4153 15.4655C20.9833 16.7377 20.3353 17.9179 19.4954 18.9456C19.0394 19.4984 18.5354 20.0052 17.9937 20.4659C16.7252 21.522 15.2442 22.2769 13.6637 22.6738C11.9152 23.1097 10.0913 23.1097 8.34279 22.6738C6.75888 22.2769 5.28124 21.522 4.01273 20.4659C3.47105 20.0052 2.96707 19.4984 2.5111 18.9456C0.09408 15.9935 -0.639596 11.9393 0.591197 8.28551C0.824328 7.60862 1.11574 6.95654 1.46544 6.33635C1.62657 6.05284 1.82542 5.73389 1.92142 5.60276C2.25054 7.0664 2.65509 8.35284 2.80594 8.81709C2.79565 8.8419 2.78194 8.87025 2.76823 8.89506C1.96941 10.5678 1.53743 12.1803 1.43458 13.8955C1.43458 13.9168 1.43115 13.9416 1.43115 13.9629C1.40373 14.4767 1.41744 14.7213 1.49972 15.0438C1.75685 16.0538 2.54881 17.1666 3.78989 18.2581C5.82293 20.0442 8.57935 21.3342 10.6672 21.483C12.8443 21.6354 16.0567 20.3206 18.196 18.3998C18.532 18.0915 18.8474 17.7655 19.1422 17.4182C19.3548 17.163 19.6702 16.7236 19.6462 16.7236C19.6394 16.7236 19.6462 16.7165 19.6599 16.7094C19.6702 16.7023 19.6805 16.6917 19.6736 16.6846C19.6702 16.681 19.6771 16.6704 19.6873 16.6669C19.6976 16.6633 19.7045 16.6562 19.7011 16.6491C19.6976 16.6421 19.7011 16.635 19.7148 16.6314C19.7251 16.6279 19.7285 16.6172 19.7251 16.6102C19.7216 16.6031 19.7251 16.596 19.7319 16.596C19.7388 16.596 19.7456 16.5854 19.7456 16.5783C19.7456 16.5712 19.7525 16.5605 19.7593 16.5605C19.7662 16.5605 19.7731 16.5535 19.7731 16.5464C19.7833 16.518 19.8005 16.4897 19.8176 16.4649C19.8691 16.3833 20.0748 16.0042 20.1022 15.9404C20.2976 15.4832 20.421 15.0756 20.4793 14.6681C20.5067 14.4732 20.5239 14.1152 20.5102 14.0302C20.5067 14.016 20.5067 13.9912 20.5033 13.9522C20.4964 13.8813 20.493 13.775 20.4862 13.6687C20.4793 13.5092 20.4656 13.286 20.4553 13.1761C20.3079 11.5672 19.9102 10.2524 19.1559 8.85962C19.1251 8.80646 19.0977 8.7533 19.0805 8.71078C19.0737 8.70014 19.0702 8.68951 19.0668 8.68243C19.1731 8.35284 19.6085 6.97426 19.9548 5.39722L19.9616 5.40431L20.013 5.47518C20.1022 5.59922 20.3387 5.96779 20.445 6.14498C20.9284 6.96008 21.3055 7.83543 21.573 8.74976C22.1935 10.9505 22.1421 13.2966 21.4153 15.4655Z" fill="#F00500"/>
<path d="M16.9658 11.2305C16.9556 11.2872 16.7944 11.4573 16.6333 11.5813C16.1602 11.9392 15.3134 12.2724 14.4528 12.4318C13.9626 12.524 13.4723 12.5382 13.3249 12.4637C13.2289 12.4141 13.2152 12.3751 13.2495 12.2476C13.3215 11.9818 13.5546 11.6912 13.918 11.4183C14.1031 11.2801 14.854 10.8087 15.2037 10.6103C15.7796 10.2842 16.2459 10.0893 16.5613 10.0432C16.6607 10.0291 16.7807 10.0255 16.8184 10.0432C16.8801 10.0681 16.9487 10.2559 16.9761 10.4827C16.9898 10.6032 16.983 11.1348 16.9658 11.2305Z" fill="black"/>
<path d="M8.88822 12.4036C8.86765 12.4461 8.7648 12.4922 8.64823 12.5099C8.53166 12.5276 8.17511 12.517 7.97284 12.4922C7.24602 12.3929 6.47463 12.1626 5.91237 11.8791C5.59696 11.7196 5.37069 11.5601 5.20269 11.3865L5.1067 11.2837L5.09642 11.149C5.07927 10.9151 5.0827 10.5465 5.11013 10.4154C5.12727 10.3056 5.16498 10.1992 5.21641 10.1036C5.24384 10.0681 5.24384 10.0681 5.36726 10.0681C5.51811 10.0681 5.64496 10.0929 5.85066 10.1603C6.27235 10.2949 6.89975 10.621 7.66428 11.0959C8.29511 11.4857 8.53167 11.6771 8.71337 11.9393C8.83679 12.1023 8.91907 12.3327 8.88822 12.4036Z" fill="black"/>
<path d="M13.7418 17.3366C13.7418 17.3473 13.7006 17.5174 13.6492 17.7194C13.5978 17.9214 13.5567 18.0844 13.5567 18.0915C13.5189 18.095 13.4847 18.0986 13.4469 18.095H13.3372L13.1864 18.4636C13.1041 18.6656 13.0287 18.8534 13.0184 18.8818L12.9978 18.9314L12.9258 18.8109L12.8538 18.6904V17.7088L12.8264 17.7158C12.7681 17.73 12.3533 17.7867 12.1716 17.8044C11.4208 17.8824 10.6665 17.8647 9.91912 17.7548C9.79913 17.7371 9.69628 17.7229 9.69285 17.7265C9.68942 17.73 9.69285 17.9568 9.69971 18.2368L9.70999 18.74L9.65171 18.8322C9.62086 18.8818 9.59 18.9243 9.59 18.9279C9.57971 18.9385 9.54543 18.8818 9.46658 18.7188C9.38087 18.5487 9.31916 18.3679 9.27459 18.1801L9.25059 18.0773L9.14431 18.0844L9.03803 18.095L9.0106 17.9639C8.99689 17.893 8.97974 17.7832 8.97289 17.7229L8.96261 17.6095L8.87346 17.528C8.82204 17.4819 8.77061 17.4359 8.76033 17.4288C8.74319 17.4146 8.73633 17.3898 8.73633 17.3685V17.326L9.16488 17.3296L9.59343 17.3331L9.60714 17.3792L9.62086 17.4252L9.76828 17.4323C9.85056 17.4359 10.1111 17.443 10.3442 17.4501L10.7728 17.4607L10.8825 17.2835L10.9956 17.1063H11.1396L11.1362 16.7377L11.1328 16.3692L10.9442 16.2841C10.3374 16.0077 9.98084 15.6923 9.84713 15.3095C9.8197 15.2316 9.8197 15.2032 9.81284 14.8488C9.80942 14.498 9.80942 14.4661 9.83341 14.3881C9.88141 14.2109 10.0151 14.0727 10.1865 14.0266C10.2448 14.0089 10.3991 14.0089 11.2082 14.0089L12.1613 14.0125L12.2676 14.0656C12.3944 14.1294 12.4527 14.1755 12.5247 14.2747C12.607 14.3881 12.631 14.4767 12.631 14.6929C12.631 15.0012 12.6104 15.267 12.5796 15.3733C12.535 15.5186 12.4664 15.6568 12.3807 15.7809C12.2093 16.0077 11.8973 16.2345 11.6128 16.3373L11.5305 16.3692L11.5339 16.7413L11.5373 17.1134L11.6128 17.1205L11.6882 17.1276L11.791 17.287L11.8905 17.4465H12.3499C12.6036 17.4465 12.8264 17.4501 12.847 17.4536C12.8813 17.4607 12.8881 17.4571 12.9224 17.3969L12.9635 17.3331H13.3578C13.6526 17.3189 13.7418 17.326 13.7418 17.3366Z" fill="black"/>
<path d="M11.9314 18.3537C11.8662 18.3927 11.8217 18.4104 11.8114 18.4033C11.8011 18.3998 11.7531 18.3573 11.7017 18.3183L11.6091 18.2403L11.5131 18.3466C11.304 18.5805 11.2971 18.5912 11.2354 18.5947C11.1394 18.6053 11.1189 18.5876 11.0023 18.4069C10.9406 18.3147 10.8926 18.2368 10.8926 18.2368C10.8926 18.2368 10.848 18.2297 10.7966 18.2261L10.7006 18.2155L10.656 18.3112L10.6115 18.4069L10.5326 18.3821C10.4709 18.3608 10.4092 18.336 10.3509 18.3077L10.248 18.2545V18.0525L11.16 18.056L12.072 18.0596L12.0754 18.1553C12.0788 18.2687 12.0822 18.2651 11.9314 18.3537Z" fill="black"/>
<path d="M20.503 14.0302C20.4995 14.016 20.4995 13.9912 20.4961 13.9522C19.6733 13.8601 17.3248 13.8034 15.1444 15.6639C15.1444 15.6639 14.4416 12.3326 11.1503 12.3326C7.85904 12.3326 6.63854 15.6639 6.63854 15.6639C4.79406 13.612 2.32562 13.7608 1.43424 13.8955C1.43424 13.9168 1.43081 13.9416 1.43081 13.9628C1.40338 14.4767 1.41709 14.7212 1.49937 15.0437C1.7565 16.0538 2.54846 17.1665 3.78954 18.2581C5.82258 20.0442 8.57901 21.3342 10.6669 21.483C12.8439 21.6354 16.0563 20.3206 18.1956 18.3998C18.5316 18.0915 18.847 17.7655 19.1419 17.4182C19.3544 17.163 19.6699 16.7236 19.6459 16.7236C19.639 16.7236 19.6459 16.7165 19.6596 16.7094C19.6699 16.7023 19.6801 16.6917 19.6733 16.6846C19.6699 16.681 19.6767 16.6704 19.687 16.6668C19.6973 16.6633 19.7041 16.6562 19.7007 16.6491C19.6973 16.642 19.7007 16.635 19.7144 16.6314C19.7247 16.6279 19.7281 16.6172 19.7247 16.6101C19.7213 16.6031 19.7247 16.596 19.7316 16.596C19.7384 16.596 19.7453 16.5853 19.7453 16.5783C19.7453 16.5712 19.7521 16.5605 19.759 16.5605C19.7659 16.5605 19.7727 16.5534 19.7727 16.5464C19.783 16.518 19.8001 16.4897 19.8173 16.4648C19.8687 16.3833 20.0744 16.0041 20.1018 15.9403C20.2973 15.4832 20.4207 15.0756 20.479 14.6681C20.4995 14.4732 20.5167 14.1152 20.503 14.0302ZM11.932 18.3538C11.8668 18.3927 11.8223 18.4105 11.812 18.4034C11.8017 18.3998 11.7537 18.3573 11.7023 18.3183L11.6097 18.2403L11.5137 18.3467C11.3046 18.5806 11.2977 18.5912 11.236 18.5947C11.14 18.6054 11.1194 18.5877 11.0029 18.4069C10.9412 18.3148 10.8932 18.2368 10.8932 18.2368C10.8932 18.2368 10.8486 18.2297 10.7972 18.2262L10.7012 18.2155L10.6566 18.3112L10.612 18.4069L10.5332 18.3821C10.4715 18.3608 10.4098 18.336 10.3515 18.3077L10.2486 18.2545V18.0525L11.1606 18.0561L12.0725 18.0596L12.076 18.1553C12.0794 18.2687 12.0828 18.2652 11.932 18.3538ZM13.6462 17.7158C13.5947 17.9179 13.5536 18.0809 13.5536 18.088C13.5159 18.0915 13.4816 18.095 13.4439 18.0915H13.3342L13.1868 18.4636C13.1045 18.6656 13.0291 18.8534 13.0188 18.8818L12.9982 18.9314L12.9262 18.8109L12.8542 18.6904V17.7088L12.8268 17.7158C12.7685 17.73 12.3537 17.7867 12.172 17.8044C11.4211 17.8824 10.6669 17.8647 9.91951 17.7548C9.79951 17.7371 9.69666 17.7229 9.69323 17.7265C9.68981 17.73 9.69324 17.9568 9.70009 18.2368L9.71038 18.74L9.65209 18.8322C9.62124 18.8818 9.59038 18.9243 9.59038 18.9279C9.5801 18.9385 9.54581 18.8818 9.46696 18.7188C9.38125 18.5487 9.31954 18.3679 9.27497 18.1801L9.25097 18.0773L9.14469 18.0844L9.03841 18.095L9.01098 17.9639C8.99727 17.893 8.98013 17.7832 8.97327 17.7229L8.96299 17.6095L8.87385 17.528C8.82242 17.4819 8.771 17.4359 8.76071 17.4288C8.74357 17.4146 8.73671 17.3898 8.73671 17.3685V17.326L9.16526 17.3296L9.59381 17.3331L9.60752 17.3792L9.62124 17.4252L9.76866 17.4323C9.85094 17.4359 10.1115 17.443 10.3446 17.4501L10.7732 17.4607L10.8829 17.2835L10.996 17.1063H11.14L11.1366 16.7377L11.1332 16.3692L10.9446 16.2841C10.3378 16.0077 9.98122 15.6923 9.84751 15.3095C9.82008 15.2316 9.82008 15.2032 9.81323 14.8488C9.8098 14.498 9.8098 14.4661 9.8338 14.3881C9.88179 14.2109 10.0155 14.0727 10.1869 14.0266C10.2452 14.0089 10.3995 14.0089 11.2086 14.0089L12.1617 14.0125L12.268 14.0656C12.3948 14.1294 12.4531 14.1755 12.5251 14.2747C12.6074 14.3881 12.6314 14.4767 12.6314 14.6929C12.6314 15.0012 12.6108 15.267 12.5799 15.3733C12.5354 15.5186 12.4668 15.6568 12.3811 15.7809C12.2097 16.0077 11.8977 16.2345 11.6131 16.3373L11.5309 16.3692L11.5343 16.7413L11.5377 17.1134L11.6131 17.1205L11.6886 17.1276L11.7914 17.287L11.8908 17.4465H12.3502C12.6039 17.4465 12.8268 17.4501 12.8474 17.4536C12.8816 17.4607 12.8885 17.4571 12.9228 17.3969L12.9639 17.3331H13.3582C13.6633 17.3331 13.7525 17.3366 13.7525 17.3473C13.7422 17.3437 13.6976 17.5174 13.6462 17.7158Z" fill="white"/>
<path d="M20.4759 13.6687C20.469 13.5093 20.4553 13.286 20.445 13.1761C20.2976 11.5672 19.8999 10.2524 19.1457 8.85965C19.1148 8.80649 19.0874 8.75333 19.0702 8.7108C19.0634 8.70017 19.06 8.68954 19.0565 8.68245C19.1628 8.35287 19.5982 6.97428 19.9445 5.39724C20.4142 3.25672 20.7124 0.754715 19.8005 0.00340535C19.8005 0.00340535 18.2234 -0.117088 16.1115 2.02344C15.539 2.61527 15.0145 3.25672 14.5482 3.94069L14.4008 3.89108C13.5505 3.60402 12.6694 3.42683 11.7815 3.36658C11.5141 3.34532 10.5164 3.34532 10.1907 3.36658C9.20676 3.43391 8.45251 3.5863 7.59541 3.89462C7.56113 3.9088 7.53027 3.91943 7.49942 3.93006C7.01601 3.24963 6.47776 2.61173 5.88465 2.02698C3.68705 -0.124175 2.0517 -0.000138775 2.0517 -0.000138775C1.0849 0.775978 1.41402 3.39139 1.91457 5.60279C2.24369 7.06643 2.64824 8.35287 2.79909 8.81712C2.78881 8.84193 2.77509 8.87028 2.76138 8.89508C1.96256 10.5678 1.53059 12.1803 1.42773 13.8955C2.32254 13.7609 4.78756 13.6085 6.63546 15.664C6.63546 15.664 7.85597 12.3327 11.1472 12.3327C14.4385 12.3327 15.1413 15.664 15.1413 15.664C17.3218 13.8034 19.6702 13.8637 20.493 13.9522C20.4896 13.8814 20.4827 13.7751 20.4759 13.6687ZM3.44706 7.48106C3.44706 7.48106 2.16484 4.1675 2.49396 2.27505C2.54882 1.9561 2.65167 1.67613 2.81281 1.4635C2.81281 1.4635 4.26644 1.61234 6.61146 4.30572C6.61146 4.30572 6.16578 4.52898 5.56923 5.00387C5.56923 5.00387 5.5658 5.00741 5.56238 5.00741C4.91441 5.52128 4.08474 6.33638 3.44706 7.48106ZM8.88792 12.4036C8.86735 12.4461 8.76449 12.4922 8.64793 12.5099C8.53136 12.5276 8.17481 12.517 7.97254 12.4922C7.24572 12.3929 6.47433 12.1626 5.91207 11.8791C5.59666 11.7196 5.37039 11.5601 5.20239 11.3865L5.1064 11.2837L5.09612 11.149C5.07897 10.9151 5.0824 10.5465 5.10983 10.4154C5.12697 10.3056 5.16468 10.1992 5.21611 10.1036C5.24354 10.0681 5.24354 10.0681 5.36696 10.0681C5.51781 10.0681 5.64466 10.0929 5.85036 10.1603C6.27205 10.2949 6.89945 10.621 7.66398 11.0959C8.29481 11.4857 8.53136 11.6771 8.71307 11.9393C8.83649 12.1023 8.91877 12.3327 8.88792 12.4036ZM16.9652 11.2305C16.9549 11.2872 16.7938 11.4573 16.6327 11.5814C16.1595 11.9393 15.3127 12.2724 14.4522 12.4319C13.9619 12.5241 13.4717 12.5382 13.3243 12.4638C13.2283 12.4142 13.2146 12.3752 13.2488 12.2476C13.3208 11.9818 13.554 11.6912 13.9174 11.4184C14.1025 11.2801 14.8533 10.8088 15.203 10.6103C15.779 10.2843 16.2453 10.0894 16.5607 10.0433C16.6601 10.0291 16.7801 10.0256 16.8178 10.0433C16.8795 10.0681 16.9481 10.2559 16.9755 10.4828C16.9892 10.6033 16.9824 11.1348 16.9652 11.2305ZM16.3961 5.00387L16.3892 5.00032C15.8133 4.52544 15.3813 4.30217 15.3813 4.30217C17.6475 1.6088 19.0497 1.45995 19.0497 1.45995C19.204 1.67613 19.3034 1.95256 19.3582 2.27151C19.6771 4.16396 18.4394 7.48106 18.4394 7.48106C17.9217 6.52775 17.2258 5.6843 16.3961 5.00387Z" fill="#FFA409"/>
<path d="M19.3612 2.27152C19.0938 2.23608 17.8287 2.22899 16.3957 5.00387L16.3888 5.00033C15.8128 4.52545 15.3809 4.30218 15.3809 4.30218C17.647 1.6088 19.0492 1.45996 19.0492 1.45996C19.2069 1.67614 19.3064 1.95256 19.3612 2.27152Z" fill="#FF9300"/>
<path d="M18.4432 7.48112C17.9221 6.52426 17.2296 5.68436 16.3965 5.00392C17.8296 2.22904 19.0912 2.23613 19.362 2.27157C19.6809 4.16756 18.4432 7.48112 18.4432 7.48112Z" fill="#FF8300"/>
<path d="M19.4128 2.28212C19.3956 2.27857 19.3785 2.27503 19.3613 2.27148L19.4128 2.28212Z" fill="#FF8300"/>
<path d="M6.61116 4.30218C6.61116 4.30218 6.16547 4.52545 5.56893 5.00033C5.56893 5.00033 5.5655 5.00387 5.56207 5.00387C4.07758 2.22545 2.77136 2.23608 2.49023 2.27152C2.54509 1.95256 2.64794 1.6726 2.80908 1.45996C2.81251 1.45996 4.26614 1.6088 6.61116 4.30218Z" fill="#FF9300"/>
<path d="M5.56532 5.00392C4.91392 5.52134 4.08425 6.33289 3.44657 7.48112C3.44657 7.48112 2.16435 4.16756 2.49348 2.27157C2.77118 2.23613 4.08082 2.22904 5.56532 5.00392Z" fill="#FF8300"/>
<path d="M2.49431 2.27148C2.47716 2.27503 2.4566 2.27857 2.43945 2.28212L2.49431 2.27148Z" fill="#FF8300"/>
<path d="M14.9738 9.3203C14.9738 9.3203 13.8767 9.39118 14.0138 8.5052C14.151 7.61922 15.0081 7.51291 15.248 7.54835C15.488 7.58378 16.448 7.93818 16.2766 8.6824C16.1051 9.42662 15.8651 9.28486 15.728 9.3203C15.5909 9.35574 14.9738 9.3203 14.9738 9.3203Z" fill="white"/>
<path d="M6.88197 9.3203C6.88197 9.3203 5.78488 9.39118 5.92202 8.5052C6.05915 7.61922 6.91625 7.51291 7.15624 7.54835C7.39623 7.58378 8.35618 7.93818 8.18476 8.6824C8.01334 9.42662 7.77335 9.28486 7.63622 9.3203C7.49908 9.35574 6.88197 9.3203 6.88197 9.3203Z" fill="white"/>
</g>
<defs>
<clipPath id="clip0_1_18298">
<rect width="22" height="23" fill="white"/>
</clipPath>
</defs>
</svg>
