<svg width="20" height="20" viewBox="0 0 20 20" fill="none" xmlns="http://www.w3.org/2000/svg">
<path d="M12.9911 1.45831C10.5161 1.45831 8.50781 3.46665 8.50781 5.94165C8.50781 8.41665 10.5161 10.425 12.9911 10.425C15.4661 10.425 17.4745 8.41665 17.4745 5.94165C17.4745 3.46665 15.4661 1.45831 12.9911 1.45831Z" fill="#FD792F"/>
<path d="M5.30039 10.8583C3.77539 10.8583 2.52539 12.1 2.52539 13.6333C2.52539 15.1667 3.76706 16.4083 5.30039 16.4083C6.82539 16.4083 8.07539 15.1667 8.07539 13.6333C8.07539 12.1 6.82539 10.8583 5.30039 10.8583Z" fill="#FD792F"/>
<path d="M13.8495 13.85C12.5578 13.85 11.5078 14.9 11.5078 16.1916C11.5078 17.4833 12.5578 18.5333 13.8495 18.5333C15.1411 18.5333 16.1911 17.4833 16.1911 16.1916C16.1911 14.9 15.1411 13.85 13.8495 13.85Z" fill="#FD792F"/>
</svg>
