<svg width="159" height="35" viewBox="0 0 159 35" fill="none" xmlns="http://www.w3.org/2000/svg">
<path d="M16.135 31.5241C17.3551 29.8293 18.5393 28.1796 19.7235 26.5312C20.7323 25.1299 21.7317 23.722 22.7551 22.3326C23.6813 21.0702 25.0135 20.1643 26.5284 19.7665C28.5739 19.198 30.6101 18.5817 32.6795 18.1168C34.374 17.7356 35.2233 16.5813 35.9251 15.1548C32.8044 14.9595 31.1922 13.2129 31.3517 10.6666H30.5649C28.0839 10.6666 25.6029 10.6666 23.122 10.6666C21.9258 10.6666 21.1762 10.0185 21.1589 8.98641C21.1403 7.91585 21.8899 7.23313 23.1153 7.21719C23.9128 7.20789 24.6996 7.21719 25.4904 7.21719L25.6233 7.05381C25.2126 6.53447 24.8564 5.95668 24.3806 5.50508C22.6528 3.86602 20.5661 3.1926 18.2243 3.53529C16.4141 3.80094 15.1873 5.34702 15.182 7.18398C15.1705 10.8597 15.1705 14.5345 15.182 18.2084C15.1926 20.2911 14.439 21.9474 12.5238 22.8852C10.5461 23.8548 8.603 23.6569 6.82867 22.3459C5.58198 21.4268 4.39112 20.4319 3.17367 19.4729C-0.93587 16.24 -0.8641 10.8911 2.29382 7.57183C6.90576 2.72506 12.5783 -0.0549626 19.3886 0.000823811C22.8375 0.028717 25.7682 1.38619 27.8761 4.21004C28.4197 4.94057 28.7786 5.82519 29.1241 6.67925C29.285 7.07772 29.4338 7.22914 29.8605 7.22383C31.8089 7.20391 33.7587 7.21453 35.7084 7.21586C38.3547 7.21586 39.9615 8.56138 40.137 11.2086C40.3722 14.8307 39.0671 17.9016 36.2587 20.2327C35.6061 20.7746 34.7169 21.0947 33.8849 21.3458C31.8116 21.974 29.7103 22.512 27.6156 23.0725C26.7069 23.3047 25.9125 23.857 25.3788 24.6278C23.3311 27.4898 21.2781 30.3477 19.2198 33.2017C17.7471 35.2445 15.7641 35.5606 13.7067 34.0797C9.63083 31.1389 5.5585 28.1955 1.48972 25.2495C0.685618 24.6664 0.426446 23.8535 0.769351 23.0472C0.919202 22.6856 1.19116 22.3879 1.53791 22.2059C1.88467 22.0239 2.2843 21.9691 2.66729 22.0511C3.04772 22.1593 3.40374 22.3396 3.71594 22.5823C7.68903 25.4363 11.6564 28.2987 15.6179 31.1695C15.7575 31.2664 15.905 31.3647 16.135 31.5241ZM11.729 5.04816C11.1216 5.36428 10.4292 5.69103 9.76862 6.07357C7.78429 7.21985 5.88634 8.49098 4.49213 10.3519C3.19095 12.0865 3.08197 14.4296 4.46023 15.8096C5.90495 17.2561 7.54771 18.5299 9.21837 19.7186C10.3228 20.5063 11.624 19.7186 11.7184 18.3705C11.7397 18.0623 11.729 17.7515 11.729 17.4407V5.04816Z" fill="white"/>
<path d="M13.4264 25.2582C13.419 24.9241 13.4791 24.5919 13.6032 24.2817C13.7273 23.9714 13.9127 23.6893 14.1485 23.4525C14.3842 23.2156 14.6653 23.0288 14.975 22.9032C15.2847 22.7777 15.6166 22.716 15.9507 22.7218C16.4494 22.7218 16.937 22.8696 17.3519 23.1464C17.7667 23.4233 18.0903 23.8168 18.2817 24.2774C18.4731 24.738 18.5238 25.2449 18.4273 25.7343C18.3309 26.2236 18.0917 26.6735 17.7398 27.027C17.388 27.3805 16.9394 27.6219 16.4505 27.7206C15.9616 27.8194 15.4544 27.7711 14.993 27.5819C14.5315 27.3926 14.1365 27.071 13.8576 26.6574C13.5788 26.2439 13.4288 25.757 13.4264 25.2582Z" fill="#FD792F"/>
<path d="M21.803 18.5631C21.803 18.77 21.761 18.9747 21.6797 19.1646C21.5983 19.3545 21.4792 19.5257 21.3298 19.6677C21.1804 19.8096 21.0038 19.9193 20.8107 19.9901C20.6177 20.0608 20.4124 20.0911 20.2073 20.0791C20.0034 20.0744 19.8025 20.0289 19.6163 19.9453C19.4301 19.8617 19.2622 19.7416 19.1225 19.592C18.9828 19.4424 18.8741 19.2663 18.8026 19.074C18.7311 18.8817 18.6984 18.677 18.7062 18.4718C18.7141 18.2666 18.7624 18.065 18.8483 17.8788C18.9343 17.6926 19.0562 17.5254 19.2069 17.3871C19.3576 17.2488 19.5341 17.1421 19.7262 17.0731C19.9183 17.0042 20.122 16.9744 20.3256 16.9856C20.7285 16.9999 21.1094 17.1735 21.386 17.4688C21.6625 17.7641 21.8124 18.1573 21.803 18.5631Z" fill="#FD792F"/>
<path d="M11.703 5.0491V17.4816C11.703 17.7934 11.7136 18.1053 11.6924 18.4144C11.598 19.7696 10.2966 20.5571 9.19195 19.7669C7.52102 18.5743 5.878 17.2964 4.43305 15.8453C3.05457 14.4608 3.16357 12.1142 4.46496 10.3699C5.85939 8.50436 7.75763 7.22779 9.74228 6.07782C10.4029 5.69005 11.0955 5.36625 11.703 5.0491Z" fill="#FD792F"/>
<path d="M50.832 25.48V9.73836H57.3533C61.9743 9.73836 64.5439 12.891 64.5439 17.62C64.5439 22.3274 61.9527 25.48 57.3533 25.48H50.832ZM53.6824 23.0184H56.9214C59.707 23.0184 61.6288 21.4636 61.6288 17.5552C61.6288 13.7116 59.707 12.1784 56.9214 12.1784H53.6824V23.0184Z" fill="white"/>
<path d="M70.8426 25.6744C68.0787 25.6744 66.2216 23.623 66.2216 19.7362C66.2216 15.8277 68.0787 13.7763 70.8426 13.7763C72.6997 13.7763 74.0817 14.7049 74.6431 16.1084H74.7943L74.9022 13.9923H77.4934V25.48H74.7943V23.3423H74.6431C74.0817 24.7459 72.6997 25.6744 70.8426 25.6744ZM71.8575 23.4718C73.7794 23.4718 74.7511 21.9387 74.7511 20.3192V19.1315C74.7511 17.4904 73.7794 15.9789 71.8575 15.9789C70.1301 15.9789 68.964 17.2097 68.964 19.7362C68.964 22.241 70.1301 23.4718 71.8575 23.4718Z" fill="white"/>
<path d="M80.388 25.48V9.73836H83.0872V25.48H80.388Z" fill="white"/>
<path d="M85.9972 25.48V13.9923H88.6101L88.6964 16.1732H88.826C89.4306 14.5969 90.8774 13.7763 92.4753 13.7763C94.138 13.7763 95.5632 14.5105 96.1678 16.4108H96.3405C96.9236 14.6617 98.4783 13.7763 100.249 13.7763C102.495 13.7763 104.222 15.1151 104.222 18.5917V25.48H101.523V19.1747C101.523 17.0154 100.81 16.0005 99.2125 16.0005C97.485 16.0005 96.4701 17.4256 96.4701 19.1531V25.48H93.7493V19.1747C93.7493 17.0154 93.0367 16.0005 91.4604 16.0005C89.7113 16.0005 88.6964 17.4256 88.6964 19.1531V25.48H85.9972Z" fill="white"/>
<path d="M110.909 25.6744C108.145 25.6744 106.288 23.623 106.288 19.7362C106.288 15.8277 108.145 13.7763 110.909 13.7763C112.766 13.7763 114.148 14.7049 114.709 16.1084H114.86L114.968 13.9923H117.56V25.48H114.86V23.3423H114.709C114.148 24.7459 112.766 25.6744 110.909 25.6744ZM111.924 23.4718C113.845 23.4718 114.817 21.9387 114.817 20.3192V19.1315C114.817 17.4904 113.845 15.9789 111.924 15.9789C110.196 15.9789 109.03 17.2097 109.03 19.7362C109.03 22.241 110.196 23.4718 111.924 23.4718Z" fill="white"/>
<path d="M124.017 25.48C121.879 25.48 121.296 24.5083 121.296 22.8672V16.1732H119.18V13.9923H121.296V10.7533L123.974 10.4725V13.9923H126.414V16.1732H123.974V22.3706C123.974 23.1047 124.276 23.2775 124.946 23.2775H126.414V25.48H124.017Z" fill="white"/>
<path d="M128.488 12.3728V9.73836H131.188V12.3728H128.488ZM128.488 25.48V13.9923H131.188V25.48H128.488Z" fill="white"/>
<path d="M138.006 25.6744C135.242 25.6744 133.385 23.623 133.385 19.7362C133.385 15.8277 135.242 13.7763 138.006 13.7763C139.863 13.7763 141.245 14.7049 141.807 16.1084H141.958L142.066 13.9923H144.657V25.48H141.958V23.3423H141.807C141.245 24.7459 139.863 25.6744 138.006 25.6744ZM139.021 23.4718C140.943 23.4718 141.914 21.9387 141.914 20.3192V19.1315C141.914 17.4904 140.943 15.9789 139.021 15.9789C137.293 15.9789 136.127 17.2097 136.127 19.7362C136.127 22.241 137.293 23.4718 139.021 23.4718Z" fill="white"/>
<path d="M147.551 25.48V13.9923H150.143L150.251 16.1732H150.38C151.028 14.5969 152.496 13.7763 154.159 13.7763C156.491 13.7763 158.24 15.1151 158.24 18.5917V25.48H155.541V19.1747C155.541 17.0154 154.807 16.0005 153.123 16.0005C151.309 16.0005 150.251 17.4256 150.251 19.1531V25.48H147.551Z" fill="white"/>
</svg>
