<svg width="26" height="26" viewBox="0 0 26 26" fill="none" xmlns="http://www.w3.org/2000/svg">
<path d="M11.4516 18.5052C11.5323 18.5053 11.6123 18.5212 11.6869 18.5519C11.7615 18.5827 11.8292 18.6277 11.8863 18.6844C11.9433 18.7411 11.9885 18.8084 12.0193 18.8824C12.0501 18.9565 12.0659 19.0358 12.0658 19.1159C12.0657 19.196 12.0497 19.2752 12.0187 19.3492C11.9876 19.4231 11.9422 19.4903 11.885 19.5468C11.8278 19.6034 11.76 19.6482 11.6853 19.6787C11.6106 19.7093 11.5306 19.7249 11.4498 19.7248C11.2867 19.7246 11.1303 19.6601 11.0151 19.5456C10.8999 19.4311 10.8353 19.2759 10.8356 19.1141C10.8358 18.9524 10.9008 18.7974 11.0163 18.6832C11.1319 18.569 11.2884 18.5049 11.4516 18.5052ZM21.0977 14.7343C21.0169 14.7343 20.937 14.7184 20.8624 14.6877C20.7877 14.657 20.72 14.6121 20.6629 14.5554C20.6058 14.4987 20.5605 14.4315 20.5297 14.3575C20.4988 14.2835 20.483 14.2041 20.483 14.1241C20.4831 14.044 20.499 13.9647 20.53 13.8907C20.561 13.8168 20.6063 13.7496 20.6635 13.693C20.7207 13.6364 20.7885 13.5915 20.8632 13.5609C20.9378 13.5303 21.0178 13.5146 21.0986 13.5147C21.2617 13.5148 21.4182 13.5791 21.5334 13.6936C21.6487 13.808 21.7134 13.9632 21.7133 14.1249C21.7132 14.2867 21.6483 14.4417 21.5328 14.556C21.4174 14.6703 21.2609 14.7344 21.0977 14.7343ZM21.0977 12.2395C20.5933 12.24 20.1098 12.4388 19.7531 12.7924C19.3965 13.1459 19.1959 13.6253 19.1954 14.1254C19.1954 14.3275 19.2296 14.5287 19.2961 14.7248L13.0126 18.0411C12.8384 17.7903 12.6052 17.5853 12.3333 17.4437C12.0613 17.3021 11.7587 17.2281 11.4516 17.2283C10.7262 17.2283 10.0655 17.6403 9.74529 18.2831L4.10057 15.332C3.50381 15.0215 3.05756 14.0482 3.10481 13.1616C3.12931 12.6993 3.29031 12.3401 3.53619 12.2013C3.69194 12.1146 3.87919 12.1215 4.0787 12.2248L4.11545 12.2447C5.61172 13.0254 10.5066 15.5818 10.7131 15.6764C11.0307 15.823 11.2074 15.882 11.7499 15.6269L21.8686 10.41C22.0174 10.3545 22.1906 10.2131 22.1906 9.99884C22.1906 9.70217 21.8809 9.58506 21.88 9.58506C21.3042 9.31181 20.4196 8.9015 19.5568 8.50073C17.7123 7.64455 15.6219 6.67473 14.704 6.19762C13.9112 5.78645 13.2733 6.13343 13.1596 6.20283L12.9391 6.31126C8.80727 8.33678 3.27718 11.0519 2.96218 11.2419C2.39954 11.582 2.05041 12.2594 2.00491 13.1C1.93491 14.4333 2.62005 15.8239 3.60094 16.3331L9.57029 19.3848C9.63604 19.8331 9.8623 20.2429 10.2077 20.5395C10.5531 20.8361 10.9946 20.9995 11.4516 21C11.9506 20.9992 12.4294 20.8042 12.785 20.4571C13.1405 20.1099 13.3445 19.6383 13.353 19.1436L19.9278 15.6105C20.2603 15.869 20.6742 16.0104 21.0977 16.0104C21.6021 16.0099 22.0857 15.8111 22.4423 15.4575C22.799 15.1039 22.9995 14.6245 23 14.1245C22.9995 13.6245 22.799 13.1451 22.4423 12.7915C22.0857 12.4379 21.6021 12.2391 21.0977 12.2386" fill="#6C6C6C"/>
</svg>
